<?xml version="1.0" encoding="UTF-8" standalone="no"?>
<!DOCTYPE svg PUBLIC "-//W3C//DTD SVG 1.1//EN" "http://www.w3.org/Graphics/SVG/1.1/DTD/svg11.dtd">
<svg width="100%" height="100%" viewBox="0 0 600 600" version="1.1" xmlns="http://www.w3.org/2000/svg" xmlns:xlink="http://www.w3.org/1999/xlink" xml:space="preserve" xmlns:serif="http://www.serif.com/" style="fill-rule:evenodd;clip-rule:evenodd;stroke-linejoin:round;stroke-miterlimit:2;">
    <g id="Background" transform="matrix(1.79728,0,0,1.79728,-667.341329,-194.947284)">
        <path d="M481.191,411.505C479.64,422.81 476.631,424.153 448.504,423.348C437.235,423.025 429.183,404.036 453.479,397.434C456.114,396.718 454.507,380.755 452.41,379.676C448.459,377.645 418.767,362.377 408.956,345.108C405.824,339.595 405.493,348.893 406.634,350.418C420.841,369.424 400.083,377.124 399.453,377.283C377.347,382.861 367.215,344.055 391.011,306.166C393.451,302.282 385.123,271.524 406.122,241.229C422.075,218.217 435.522,213.251 446.246,207.126C448.592,205.786 440.773,200.158 439.159,192.582C436.967,182.292 447.701,193.034 458.521,191.744C483.48,188.768 484.159,194.21 485.377,192.439C488.889,187.332 472.526,162.926 472.632,171.513C472.836,187.997 455.73,188.356 451.6,177.472C448.889,170.328 457.191,164.129 452.533,165.752C432.981,172.568 430.319,154.815 434.457,153.385C438.678,151.926 439.653,157.818 439.929,158.171C443.778,163.088 451.811,159.087 452.587,158.903C460.661,156.988 466.477,161.325 467.504,161.473C469.338,161.738 481.565,163.504 487.137,173.766C490.383,179.744 488.032,169.273 502.67,156.701C511.848,148.817 513.015,154.987 520.022,164.825C525.582,172.632 511.774,172.75 505.902,189.636C504.91,192.491 506.602,192.402 509.503,191.51C520.951,187.99 532.998,195.164 543.518,189.533C555.377,183.185 550.223,196.919 544.465,203.469C540.218,208.301 545.999,207.298 557.371,214.703C561.243,217.225 560.83,217.621 564.653,220.168C566.831,221.618 566.062,218.902 566.082,187.5C566.094,168.316 564.345,167.055 572.745,158.752C603.5,128.353 603.34,126.965 609.502,126.812C659.185,125.582 660.269,126.632 663.367,129.635C698.192,163.392 698.758,163.385 699.278,167.529C699.464,169.014 699.415,217.835 699.238,219.455C698.821,223.268 698.003,222.964 666.369,254.365C657.762,262.909 655.602,259.866 640.464,260.161C637.874,260.212 638.351,267.141 638.486,278.5C638.556,284.334 646.717,282.814 648.782,292.43C652.333,308.961 638.584,315.223 638.525,316.504C637.679,334.76 641.338,351.053 633.517,352.588C621.345,354.978 630.216,319.613 625.608,321.839C613,327.928 613.556,330.236 589.528,332.673C582.802,333.355 584.67,356.924 537.502,379.503C536.333,380.063 534.856,380.77 534.913,395.493C534.926,398.791 554.135,398.275 551.188,416.424C547.82,424.585 543.506,423.488 525.5,423.424C502.236,423.342 509.191,412.697 507.299,389.539C507.045,386.429 505.247,388.946 484.488,387.814C481.618,387.658 482.083,391.449 481.191,411.505ZM582.497,237.516C582.548,238.407 581.439,237.692 581.485,238.501C581.496,238.682 581.5,238.754 582.666,240.435C585.49,244.509 601.4,267.455 598.015,300.469C597.444,306.032 609.52,299.59 610.335,299.193C620.296,294.341 613.233,286.85 623.62,282.802C627.662,281.228 627.015,280.048 626.909,262.475C626.884,258.242 624.443,260.466 608.51,260.168C603.129,260.068 595.756,250.928 582.497,237.516Z" style="fill:rgb(46,50,57);"/>
        <path d="M424.261,351.744C368.456,292.508 414.165,222.266 455.536,211.759C467.359,208.757 437.957,226.979 448.491,231.519C463.442,237.964 478.467,228.694 479.189,230.687C479.791,232.349 480.904,242.394 491.648,251.307C495.923,254.853 505.788,248.098 510.162,231.371C511.082,227.854 526.185,238.038 540.62,231.728C551.759,226.859 524.174,210.742 533.51,211.59C545.575,212.687 579.589,235.813 587.286,265.557C611.904,360.697 494.642,419.306 424.261,351.744Z" style="fill:rgb(227,80,67);"/>
        <path d="M573.179,185.499C573.194,173.182 571.698,170.023 576.88,164.872C607.876,134.058 608.248,134.428 608.473,134.376C609.721,134.091 654.692,134.162 656.531,134.302C657.17,134.351 657.565,133.978 690.262,166.747C693.993,170.486 691.607,218.233 691.479,218.488C691.005,219.431 659.596,250.759 659.162,251.136C657.066,252.956 656.729,252.759 610.502,252.878C606.744,252.888 606.859,252.054 575.947,221.044C572.392,217.478 573.172,216.768 573.179,185.499Z" style="fill:rgb(250,248,246);"/>
        <path d="M612.507,140.683C630.701,140.432 653.486,140.458 654.41,140.797C656.046,141.396 656.01,141.52 670.229,155.769C683.209,168.776 685.756,169.875 685.794,174.5C685.819,177.705 686.104,212.971 685.708,214.553C684.612,218.92 658.633,242.802 656.128,245.104C653.616,247.414 653.207,246.899 613.499,246.557C610.293,246.529 610.083,246.187 593.112,228.89C583.721,219.319 579.584,220.86 579.725,207.497C580.09,172.93 578.803,172.348 581.487,169.488C607.942,141.3 609.151,141.136 612.507,140.683Z" style="fill:rgb(226,80,67);"/>
        <path d="M492,198.482C492.217,191.855 491.88,190.336 494.509,181.503C497.469,171.562 507.024,158.642 510.025,162.812C513.613,167.798 512.191,168.447 509.792,170.816C495.236,185.192 495.911,207.179 498.401,208.631C504.096,211.953 503.749,202.589 504.808,201.834C513.91,195.347 523.862,198.133 530.485,198.702C535.29,199.115 540.989,197.388 538.157,200.193C527.763,210.486 503.536,206.217 516.33,211.908C528.192,217.184 535.359,226.693 532.408,227.009C515.575,228.812 502.866,212.844 503.692,220.471C505.103,233.492 496.876,247.602 492.538,242.469C483.337,231.581 486.358,219.052 486.137,218.604C485.133,216.559 467.984,229.657 457.382,226.783C455.072,226.157 460.135,220.925 460.525,220.523C469.541,211.206 483.384,209.686 476.451,208.662C450.037,204.762 450.428,198.239 452.499,198.457C464.299,199.7 475.595,194.753 484.152,200.923C486.507,202.621 486.095,213 491.133,209.015C492.426,207.993 492.038,199.327 492,198.482Z" style="fill:rgb(132,171,112);"/>
        <path d="M389.674,324.57C391.473,320.251 393.682,311.246 395.627,318.451C397.472,325.285 397.793,325.025 400.735,331.406C402.425,335.07 398.794,337.546 398.778,351.479C398.773,355.414 406.95,358.834 402.649,366.588C397.953,375.053 374.204,372.144 389.674,324.57Z" style="fill:rgb(225,84,70);"/>
        <path d="M652.882,198.507C651.57,218.27 631.985,211.951 631.82,200.48C631.773,197.221 628.032,172.431 646.512,177.463C654.9,179.747 652.882,194.888 652.882,198.507Z" style="fill:rgb(253,248,244);"/>
        <path d="M667.5,199.621C662.335,200.208 666.442,210.164 662.477,210.279C656.01,210.466 658,205.592 658.009,196.508C658.019,186.134 656.74,177.349 660.489,177.312C664.238,177.275 679.828,174.268 678.275,190.473C677.499,198.573 668.625,199.503 667.5,199.621Z" style="fill:rgb(252,247,241);"/>
        <path d="M527.964,390.558C527.613,393.783 526.517,402.697 526.905,403.294C527.944,404.891 528.384,404.057 533.506,404.241C543.766,404.609 545.101,413.504 544.059,415.21C543.422,416.252 517.839,418.953 515.795,413.404C515.671,413.066 514.194,389.18 514.308,387.414C516.606,385.356 527.429,383.607 527.463,383.623C529.722,384.668 528.377,385.374 527.964,390.558Z" style="fill:rgb(226,86,72);"/>
        <path d="M474.959,394.489C473.925,412.574 473.851,413.425 473.206,414.332C471.188,417.172 464.939,416.306 464.503,416.304C457.12,416.26 442.756,418.546 445.961,410.694C449.245,402.651 460.035,404.158 460.468,404.143C464.292,404.009 462.242,392.962 462.075,390.499C461.789,384.303 461.11,383.632 462.505,383.518C463.417,383.444 463.351,383.657 473.636,386.119C476.413,386.783 475.073,392.816 474.959,394.489Z" style="fill:rgb(228,87,72);"/>
        <path d="M587.19,203.546C587.398,200.329 588.229,200.417 591.491,200.575C593.427,200.669 594.761,206.125 598.41,204.291C606.842,200.052 588.758,195.41 587.714,187.473C585.421,170.053 611.363,178.48 606.285,185.383C602.081,191.097 598.227,178.417 594.681,184.588C593.348,186.909 600.515,191.513 601.175,191.937C619.395,203.642 592.261,221.409 587.19,203.546Z" style="fill:rgb(251,247,243);"/>
        <path d="M538.166,293.196C520.327,306.924 513.146,275.28 531.52,276.295C534.349,276.451 546.092,280.936 538.166,293.196Z" style="fill:rgb(50,51,58);"/>
        <path d="M465.428,278.59C479.028,293.887 450.878,305.02 448.858,287.455C448.041,280.344 455.949,272 465.428,278.59Z" style="fill:rgb(50,51,60);"/>
        <path d="M601.393,310.125C602.901,309.689 614.887,306.217 619.357,302.238C623.422,298.62 620.536,305.095 625.153,310.75C629.498,316.071 604.555,323.265 602.547,323.844C602.644,323.349 601.755,322.995 601.852,322.5C601.957,321.961 603.199,322.306 602.586,320.469C600.923,315.48 602.835,315.221 601.393,310.125Z" style="fill:rgb(223,86,71);"/>
        <path d="M622.638,199.504C622.564,207.604 624.353,208.57 621.385,210.18C620.957,210.412 615.966,213.118 615.92,207.487C615.907,205.831 616.006,204.176 616.003,202.52C615.968,184.033 615.586,183.585 614.513,183.453C609.855,182.884 607.874,182.823 609.497,178.499C610.068,176.977 628.769,175.637 628.845,179.464C628.945,184.459 625.695,183.248 624.482,183.374C621.713,183.661 622.622,192.772 622.638,199.504Z" style="fill:rgb(252,247,242);"/>
        <path d="M425.338,256.413C424.058,259.014 421.829,266.037 417.424,264.722C406.344,261.413 440.181,221.279 441.38,236.497C441.844,242.399 436.396,239.436 425.338,256.413Z" style="fill:rgb(244,132,115);"/>
        <path d="M494.488,303.859C504.721,303.044 506.111,294.564 509.025,300.687C512.698,308.404 486.669,316.959 480.775,303.382C480.517,302.788 479.588,294.68 488.766,302.119C490.004,303.122 494.016,303.781 494.488,303.859Z" style="fill:rgb(54,46,52);"/>
        <path d="M639.553,290.442C648.475,301.51 631.544,317.836 628.783,301.452C627.978,296.678 630.809,285.235 639.553,290.442Z" style="fill:rgb(225,89,74);"/>
        <path d="M646.285,191.503C646.14,200.37 648.382,201.554 644.61,203.659C634.377,209.368 637.025,175.005 645.322,184.643C646.081,185.524 645.782,185.624 646.285,191.503Z" style="fill:rgb(217,82,71);"/>
        <path d="M601.393,310.125C602.835,315.221 600.923,315.48 602.586,320.469C603.199,322.306 601.957,321.961 601.852,322.5C601.755,322.995 602.644,323.349 602.547,323.844C594.32,325.307 594.149,325.976 592.928,325C592.2,324.419 592.757,322.751 592.819,322.566C595.505,314.521 592.972,311.181 601.393,310.125Z" style="fill:rgb(196,70,63);"/>
        <path d="M668.518,183.424C677.916,188.532 665.216,198.002 664.711,191.477C664.238,185.354 664.302,183.165 668.518,183.424Z" style="fill:rgb(212,86,75);"/>
        <path d="M410.212,280.629C410.14,280.009 409.428,273.859 413.502,273.553C420.938,272.994 416.592,288.887 410.212,280.629Z" style="fill:rgb(248,132,115);"/>
        <path d="M465.778,173.517C463.736,181.359 454.618,175.796 459.698,170.69C465.162,165.198 465.738,172.982 465.778,173.517Z" style="fill:rgb(246,247,249);"/>
        <path d="M623.433,293.304C622.627,291.816 621.975,291.809 622.814,290.741C623.369,290.035 626.993,290.801 623.433,293.304Z" style="fill:rgb(86,77,86);"/>
    </g>
</svg>
